<?xml version="1.0" standalone="no"?>
<!DOCTYPE svg PUBLIC "-//W3C//DTD SVG 20010904//EN"
 "http://www.w3.org/TR/2001/REC-SVG-20010904/DTD/svg10.dtd">
<svg version="1.0" xmlns="http://www.w3.org/2000/svg"
 width="216.000000pt" height="216.000000pt" viewBox="0 0 216.000000 216.000000"
 preserveAspectRatio="xMidYMid meet">

<g transform="translate(0.000000,216.000000) scale(0.100000,-0.100000)"
fill="#000000" stroke="none">
<path d="M665 2145 c-335 -62 -602 -337 -654 -672 -15 -95 -15 -691 0 -786 53
-342 334 -623 676 -676 106 -16 708 -14 803 3 337 61 607 336 659 673 15 95
15 691 0 786 -53 342 -334 623 -676 676 -103 16 -718 13 -808 -4z m435 -824
c0 -10 -19 -55 -74 -173 -19 -43 -31 -78 -26 -78 5 0 62 59 127 130 l118 130
132 0 c82 0 133 -4 133 -10 0 -6 -25 -63 -55 -127 -30 -65 -52 -120 -49 -123
6 -5 59 50 180 183 l70 78 49 -3 49 -3 -243 -267 -243 -268 -134 0 c-74 0
-134 2 -134 5 0 3 25 59 56 126 31 66 53 123 50 126 -4 4 -10 2 -15 -3 -4 -5
-58 -64 -120 -131 l-113 -123 -134 0 c-74 0 -134 2 -134 5 0 2 25 59 57 125
31 66 53 123 50 126 -3 4 -32 -22 -64 -57 -32 -35 -87 -95 -123 -132 -65 -67
-66 -68 -113 -65 l-47 3 242 267 243 267 133 1 c73 0 132 -4 132 -9z"/>
</g>
</svg>
